<?xml version="1.0" encoding="UTF-8"?>
<svg id="Layer_2" data-name="Layer 2" xmlns="http://www.w3.org/2000/svg" viewBox="0 0 647.68 647.68">
  <defs>
    <style>
      .cls-1 {
        stroke: #e09945;
        stroke-width: 24px;
      }

      .cls-1, .cls-2, .cls-3 {
        fill: none;
        stroke-miterlimit: 10;
      }

      .cls-2 {
        stroke: #cc7e3f;
        stroke-width: 42px;
      }

      .cls-3 {
        stroke: #f7e3bd;
        stroke-width: 13px;
      }

      .cls-4 {
        fill: #e09945;
      }

      .cls-4, .cls-5 {
        fill-rule: evenodd;
      }

      .cls-5 {
        fill: #f4e4c1;
      }
    </style>
  </defs>
  <g id="Layer_1-2" data-name="Layer 1">
    <path class="cls-4" d="m324.88,225.44l63.05,103.76c-6.83,10.21-52.18,75.09-54.27,76.62-2.03-3.84-4.54-7.41-6.94-11.43l-35.12-57.47c-2.45-4.13-20.68-32.87-20.5-34.71l53.78-76.77h0Zm-4.79-7.19c-7.35,8.46-20.26,28.74-26.67,37.99-2.43,3.5-4.02,6-6.53,9.44l-20.29,29.2c-2.15-1.58-3.44-4.53-4.94-7.04l-22.67-37.19c-3.48-5.29-5.95-10.02-9.42-15.32-6.28-9.55-11.1-20.72-18.63-29.25-5.7-6.45-6.42-6.21-17.76-6.19-8.25,0-16.5,0-24.74,0,4.09,3.55,10.87,4.4,15.78,8.97,7.52,7,14.29,21.05,19.68,29.81,11.05,17.95,38.95,61.51,47.55,77.76-1.94,2.89-3.72,5.4-5.93,8.45l-67.83,95.79c-4.37,6.32-7.53,11.23-13.56,15.97-3.02,2.37-6.17,4.23-9.39,5.77l-9.38,3.39c-.18.07-.41.17-.57.23l56.38.5c-.16-.11-.43-.45-.5-.29l-1.59-.8c-1.06-.44-1.89-.62-2.99-1-4.74-1.59-14.07-5.15-14.07-10.68,0-9.65,56.29-84.6,64.51-96.73,2.45-3.63,6.45-11.02,9.73-13.42,7.93,15,36.24,58.98,47.24,77.27,2.71,4.52,5.21,8.42,7.88,12.87,2.5,4.17,5.23,8.77,7.94,12.82l-8.45,12.31c-6.13,8.47-40,57.97-44.82,62.93-5.29,5.45-11.35,10.49-18.67,13.26-3.21,1.21-6.06.8-7.89,3.29h57.47c-3.69-5.03-23.84-4.44-18.9-16.44,3.41-8.31,9.5-15.73,14.44-23.15,3.37-5.06,27.23-41.01,31.61-44.22,3.01,4.49,5.33,9.14,8.45,13.89l16.94,27.76c2.95,4.88,5.46,8.86,8.47,13.87,2.95,4.91,5.61,9.33,8.38,13.96,2.9,4.86,5.87,8.45,10.73,11.62,10,6.56,28.04,4.29,40.41,4.29-1.66-2.27-4.46-2.26-7.66-3.51-13.58-5.33-20.35-19.03-27.41-30.85-11.29-18.87-32.66-54.94-43.94-71.79,4.92-9.3,16.57-24.26,23.15-33.53,3.94-5.56,27.78-41.43,31.13-43.9,1.61,3.05,3.21,5.22,5.14,8.44,1.85,3.09,3.23,5.54,5.09,8.48l31.83,51.98c4.66,7.81,15.99,28.28,21.19,33.88,4.43,4.77,9.91,9.02,18.94,9,9.32-.03,18.64-.03,27.96-.03l-2.25-.94c-.78-.27-1.37-.39-2.42-.76-4.97-1.79-9.82-4.49-13.82-7.73-5.05-4.08-8.88-11.05-12.18-16.56l-43.22-70.91c-7.76-11.79-14.19-24.11-21.88-35.59l31.61-45.81c7.2-10.91,36.58-53.93,44.02-60.54,4.24-3.78,11.64-6.98,19.36-6.98l-54.27-.8c5.63,3.57,15.97,2.47,15.97,11.97,0,6.36-24.55,40.8-29.37,48.05-2.72,4.09-5.03,7.15-7.82,11.34-2.85,4.29-5.05,7.76-7.98,11.98l-7.85,11.31c-1.92,2.64-6.68,10.22-8.45,11.51-7.04-13.3-26.86-43.94-35.95-59.02-2.35-3.9-4.8-7.72-7.3-11.86l-18.25-29.73c-1.69-2.86-1.61-2.97.45-5.87l27.69-39.41c1.47-2.21,2.41-3.58,3.94-5.63,8.57-11.54,14.5-24.86,32.61-24.86h-52.68c4.19,0,6.87,1.22,10,2.77,10.89,5.4,3.47,14.32-1.37,21.81-3.07,4.74-5.67,8.89-8.78,13.56l-15.6,23.51c-1.29,1.96-.93,2.33-3.39,2.99-1.17-4.35-24.99-41.48-27.89-46.34-16.84-28.15-17.42-21.5-52.72-21.5,3.11,4.26,13.89,3.88,22.19,16.92,8.44,13.25,38.85,61.94,44.85,73.28h-.05Z"/>
    <path class="cls-5" d="m254.5,291.87l-21.34-34.9c-3.09-4.95-5.72-9.42-8.8-14.36-5.57-8.91-11.57-19.59-16.94-27.37-4.06-5.89-4.1-5.58-6.41-4.52-1.68.77-3.37,1.52-5.06,2.28,2.43,3.15,4.2,3.37,7.25,7.46,4.68,6.27,12.37,19.62,17.41,27.83,10.32,16.84,35.59,57.59,44.64,72.95,48.88,79.75,65.64,107.09,67.89,110.77,1.99,3.25,3.93,6.43,3.93,6.43,2,3.27,3.45,5.66,4.03,6.61,3.61,5.91,7.71,12.62,15.93,26.05.86,1.41,2.61,4.27,3.95,6.46,2.43,3.97,3.64,5.95,4.01,6.55,4.21,6.9,4.96,8.22,7.98,13.12,2.14,3.46,3.37,5.39,4.86,7.4,0,0,1.3,1.76,2.56,3.17,4.89,5.49,11.55,3.7,10.19.53-.46-1.06-1.38-1.27-3.15-2.79-6.22-5.37-14.69-20.03-19.46-28.16-9.65-16.42-23.35-38.67-41.22-67.34"/>
    <path class="cls-5" d="m337.04,217.11l-21.34-34.9c-3.09-4.95-5.72-9.42-8.8-14.36-5.57-8.91-11.57-19.59-16.94-27.37-4.06-5.89-4.1-5.58-6.41-4.52-1.68.77-3.37,1.52-5.06,2.28,2.43,3.15,4.2,3.37,7.25,7.46,4.68,6.27,12.37,19.62,17.41,27.83,10.32,16.84,35.59,57.59,44.64,72.95,48.88,79.75,65.64,107.09,67.89,110.77,1.99,3.25,3.93,6.43,3.93,6.43,2,3.27,3.45,5.66,4.03,6.61,3.61,5.91,7.71,12.62,15.93,26.05.86,1.41,2.61,4.27,3.95,6.46,2.43,3.97,3.64,5.95,4.01,6.55,4.21,6.9,4.96,8.22,7.98,13.12,2.14,3.46,3.37,5.39,4.86,7.4,0,0,1.3,1.76,2.56,3.17,4.89,5.49,11.55,3.7,10.19.53-.46-1.06-1.38-1.27-3.15-2.79-6.22-5.37-14.69-20.03-19.46-28.16-9.65-16.42-23.35-38.67-41.22-67.34"/>
    <circle class="cls-2" cx="323.84" cy="323.84" r="302.84"/>
    <circle class="cls-1" cx="323.84" cy="323.84" r="302.84"/>
    <circle class="cls-3" cx="323.84" cy="323.84" r="302.84"/>
  </g>
</svg>