<?xml version="1.0" encoding="utf-8"?>
<!-- Generator: Adobe Illustrator 27.8.1, SVG Export Plug-In . SVG Version: 6.00 Build 0)  -->
<svg version="1.1" id="Layer_2_00000165945506170134775420000006421583908863754427_"
	 xmlns="http://www.w3.org/2000/svg" xmlns:xlink="http://www.w3.org/1999/xlink" x="0px" y="0px" viewBox="0 0 647.7 647.7"
	 style="enable-background:new 0 0 647.7 647.7;" xml:space="preserve">
<style type="text/css">
	.st0{fill-rule:evenodd;clip-rule:evenodd;fill:#FFFFFF;}
	.st1{fill:#FFFFFF;}
</style>
<path class="st0" d="M324.9,225.4l63,103.8c-6.8,10.2-52.2,75.1-54.3,76.6c-2-3.8-4.5-7.4-6.9-11.4l-35.1-57.5
	c-2.5-4.1-20.7-32.9-20.5-34.7L324.9,225.4L324.9,225.4L324.9,225.4z M320.1,218.2c-7.4,8.5-20.3,28.7-26.7,38c-2.4,3.5-4,6-6.5,9.4
	l-20.3,29.2c-2.1-1.6-3.4-4.5-4.9-7L239,250.6c-3.5-5.3-5.9-10-9.4-15.3c-6.3-9.6-11.1-20.7-18.6-29.2c-5.7-6.4-6.4-6.2-17.8-6.2
	h-24.7c4.1,3.6,10.9,4.4,15.8,9c7.5,7,14.3,21.1,19.7,29.8c11.1,18,38.9,61.5,47.6,77.8c-1.9,2.9-3.7,5.4-5.9,8.5l-67.8,95.8
	c-4.4,6.3-7.5,11.2-13.6,16c-3,2.4-6.2,4.2-9.4,5.8l-9.4,3.4c-0.2,0.1-0.4,0.2-0.6,0.2l56.4,0.5c-0.2-0.1-0.4-0.5-0.5-0.3l-1.6-0.8
	c-1.1-0.4-1.9-0.6-3-1c-4.7-1.6-14.1-5.1-14.1-10.7c0-9.6,56.3-84.6,64.5-96.7c2.4-3.6,6.4-11,9.7-13.4c7.9,15,36.2,59,47.2,77.3
	c2.7,4.5,5.2,8.4,7.9,12.9c2.5,4.2,5.2,8.8,7.9,12.8l-8.5,12.3c-6.1,8.5-40,58-44.8,62.9c-5.3,5.5-11.4,10.5-18.7,13.3
	c-3.2,1.2-6.1,0.8-7.9,3.3H297c-3.7-5-23.8-4.4-18.9-16.4c3.4-8.3,9.5-15.7,14.4-23.1c3.4-5.1,27.2-41,31.6-44.2
	c3,4.5,5.3,9.1,8.5,13.9l16.9,27.8c3,4.9,5.5,8.9,8.5,13.9c3,4.9,5.6,9.3,8.4,14c2.9,4.9,5.9,8.4,10.7,11.6c10,6.6,28,4.3,40.4,4.3
	c-1.7-2.3-4.5-2.3-7.7-3.5c-13.6-5.3-20.4-19-27.4-30.9c-11.3-18.9-32.7-54.9-43.9-71.8c4.9-9.3,16.6-24.3,23.1-33.5
	c3.9-5.6,27.8-41.4,31.1-43.9c1.6,3,3.2,5.2,5.1,8.4c1.9,3.1,3.2,5.5,5.1,8.5l31.8,52c4.7,7.8,16,28.3,21.2,33.9
	c4.4,4.8,9.9,9,18.9,9c9.3,0,18.6,0,28,0l-2.2-0.9c-0.8-0.3-1.4-0.4-2.4-0.8c-5-1.8-9.8-4.5-13.8-7.7c-5-4.1-8.9-11-12.2-16.6
	L429,351.2c-7.8-11.8-14.2-24.1-21.9-35.6l31.6-45.8c7.2-10.9,36.6-53.9,44-60.5c4.2-3.8,11.6-7,19.4-7l-54.3-0.8
	c5.6,3.6,16,2.5,16,12c0,6.4-24.5,40.8-29.4,48c-2.7,4.1-5,7.1-7.8,11.3c-2.9,4.3-5,7.8-8,12l-7.9,11.3c-1.9,2.6-6.7,10.2-8.5,11.5
	c-7-13.3-26.9-43.9-36-59c-2.4-3.9-4.8-7.7-7.3-11.9L340.9,207c-1.7-2.9-1.6-3,0.5-5.9l27.7-39.4c1.5-2.2,2.4-3.6,3.9-5.6
	c8.6-11.5,14.5-24.9,32.6-24.9h-52.7c4.2,0,6.9,1.2,10,2.8c10.9,5.4,3.5,14.3-1.4,21.8c-3.1,4.7-5.7,8.9-8.8,13.6l-15.6,23.5
	c-1.3,2-0.9,2.3-3.4,3c-1.2-4.4-25-41.5-27.9-46.3c-16.8-28.2-17.4-21.5-52.7-21.5c3.1,4.3,13.9,3.9,22.2,16.9
	C283.7,158.2,314.2,206.9,320.1,218.2L320.1,218.2L320.1,218.2L320.1,218.2z"/>
<g>
	<path class="st1" d="M323.8,647.7c-86.5,0-167.8-33.7-229-94.9C33.7,491.7,0,410.3,0,323.8S33.7,156,94.9,94.9
		C156,33.7,237.3,0,323.8,0s167.8,33.7,229,94.9c61.2,61.2,94.9,142.5,94.9,229s-33.7,167.8-94.9,229S410.3,647.7,323.8,647.7z
		 M323.8,42c-75.3,0-146.1,29.3-199.3,82.5S42,248.6,42,323.8s29.3,146.1,82.5,199.3s124,82.5,199.3,82.5s146.1-29.3,199.3-82.5
		s82.5-124,82.5-199.3s-29.3-146.1-82.5-199.3S399.1,42,323.8,42z"/>
</g>
</svg>
